<svg data-v-423bf9ae="" xmlns="http://www.w3.org/2000/svg" viewBox="0 0 529 90" class="iconLeft"><!----><!----><!----><g data-v-423bf9ae="" id="83d14d10-4cb0-4056-9bde-8dfb34ef8339" fill="#3E2B18" transform="matrix(4.4182621750432,0,0,4.4182621750432,117.15300299310351,7.577318058883705)"><path d="M7.21 11.49L6.50 9.32L3.08 9.32L2.35 11.49L3.51 11.79L3.51 12.60L-0.18 12.60L-0.18 11.79L0.97 11.49L4.24 2.38L5.96 2.38L9.21 11.49L10.33 11.79L10.33 12.60L6.06 12.60L6.06 11.79L7.21 11.49ZM4.80 4.23L3.43 8.30L6.16 8.30L4.86 4.23L4.80 4.23ZM11.70 11.55L11.70 6.09L10.63 5.82L10.63 5.04L13.06 5.04L13.37 6.44L13.43 6.44L13.43 6.44Q13.85 5.73 14.55 5.31L14.55 5.31L14.55 5.31Q15.26 4.90 16.09 4.90L16.09 4.90L16.09 4.90Q16.65 4.90 17.09 5.10L17.09 5.10L17.09 5.10Q17.54 5.29 17.81 5.66L17.81 5.66L17.81 5.66Q18.09 6.05 18.21 6.75L18.21 6.75L18.21 6.75Q18.33 7.46 18.33 8.67L18.33 8.67L18.33 11.55L19.40 11.82L19.40 12.60L15.61 12.60L15.61 11.82L16.55 11.55L16.55 8.85L16.55 8.85Q16.55 8.01 16.50 7.54L16.50 7.54L16.50 7.54Q16.45 7.07 16.32 6.79L16.32 6.79L16.32 6.79Q16.17 6.43 15.90 6.29L15.90 6.29L15.90 6.29Q15.64 6.15 15.27 6.15L15.27 6.15L15.27 6.15Q14.59 6.15 14.11 6.59L14.11 6.59L14.11 6.59Q13.54 7.13 13.48 8.23L13.48 8.23L13.48 11.55L14.42 11.82L14.42 12.60L10.63 12.60L10.63 11.82L11.70 11.55ZM20.05 10.95L20.05 10.95L20.05 10.95Q20.05 10.37 20.31 9.93L20.31 9.93L20.31 9.93Q20.57 9.49 21.11 9.16L21.11 9.16L21.11 9.16Q21.64 8.82 22.48 8.58L22.48 8.58L22.48 8.58Q23.31 8.34 24.46 8.16L24.46 8.16L24.46 8.16Q24.39 7.46 24.30 7.09L24.30 7.09L24.30 7.09Q24.21 6.72 24.05 6.44L24.05 6.44L24.05 6.44Q23.86 6.12 23.60 5.92L23.60 5.92L23.60 5.92Q23.34 5.73 22.93 5.73L22.93 5.73L22.93 5.73Q22.64 5.73 22.39 5.84L22.39 5.84L22.39 5.84Q22.15 5.95 22.06 6.15L22.06 6.15L22.06 6.15Q22.26 6.26 22.34 6.46L22.34 6.46L22.34 6.46Q22.41 6.66 22.41 6.82L22.41 6.82L22.41 6.82Q22.41 7.17 22.11 7.44L22.11 7.44L22.11 7.44Q21.80 7.71 21.36 7.71L21.36 7.71L21.36 7.71Q20.92 7.71 20.67 7.43L20.67 7.43L20.67 7.43Q20.43 7.14 20.43 6.71L20.43 6.71L20.43 6.71Q20.43 6.27 20.66 5.94L20.66 5.94L20.66 5.94Q20.90 5.60 21.29 5.37L21.29 5.37L21.29 5.37Q21.69 5.14 22.17 5.02L22.17 5.02L22.17 5.02Q22.65 4.90 23.14 4.90L23.14 4.90L23.14 4.90Q23.80 4.90 24.32 5.09L24.32 5.09L24.32 5.09Q24.85 5.28 25.17 5.56L25.17 5.56L25.17 5.56Q26.28 6.54 26.28 8.67L26.28 8.67L26.28 10.49L26.28 10.49Q26.28 11.19 26.37 11.45L26.37 11.45L26.37 11.45Q26.46 11.70 26.77 11.70L26.77 11.70L27.40 11.70L27.40 12.33L27.40 12.33Q26.11 12.74 25.45 12.74L25.45 12.74L25.45 12.74Q25.21 12.74 25.07 12.67L25.07 12.67L25.07 12.67Q24.92 12.60 24.84 12.43L24.84 12.43L24.84 12.43Q24.75 12.26 24.72 11.97L24.72 11.97L24.72 11.97Q24.68 11.68 24.68 11.21L24.68 11.21L24.63 11.21L24.63 11.21Q24.19 11.93 23.48 12.33L23.48 12.33L23.48 12.33Q22.76 12.74 21.94 12.74L21.94 12.74L21.94 12.74Q21.06 12.74 20.55 12.26L20.55 12.26L20.55 12.26Q20.05 11.79 20.05 10.95ZM22.79 11.72L22.79 11.72L22.79 11.72Q23.09 11.72 23.44 11.53L23.44 11.53L23.44 11.53Q23.80 11.34 24.07 10.98L24.07 10.98L24.07 10.98Q24.22 10.78 24.36 10.42L24.36 10.42L24.36 10.42Q24.50 10.05 24.50 9.55L24.50 9.55L24.50 9.55Q24.50 9.38 24.49 9.18L24.49 9.18L24.49 9.18Q24.47 8.97 24.44 8.78L24.44 8.78L24.44 8.78Q23.72 8.93 23.23 9.11L23.23 9.11L23.23 9.11Q22.75 9.28 22.46 9.49L22.46 9.49L22.46 9.49Q22.16 9.70 22.04 9.97L22.04 9.97L22.04 9.97Q21.91 10.25 21.91 10.60L21.91 10.60L21.91 10.60Q21.91 11.21 22.19 11.47L22.19 11.47L22.19 11.47Q22.47 11.72 22.79 11.72ZM28.70 11.54L28.70 2.74L27.62 2.48L27.62 1.68L30.48 1.68L30.48 11.54L31.56 11.80L31.56 12.60L27.62 12.60L27.62 11.80L28.70 11.54ZM39.16 6.09L36.90 12.26L36.90 12.26Q36.55 13.08 36.27 13.65L36.27 13.65L36.27 13.65Q35.98 14.22 35.66 14.58L35.66 14.58L35.66 14.58Q35.35 14.94 34.97 15.10L34.97 15.10L34.97 15.10Q34.59 15.26 34.05 15.26L34.05 15.26L34.05 15.26Q33.71 15.26 33.42 15.17L33.42 15.17L33.42 15.17Q33.14 15.08 32.92 14.91L32.92 14.91L32.92 14.91Q32.70 14.74 32.58 14.52L32.58 14.52L32.58 14.52Q32.45 14.29 32.45 14.03L32.45 14.03L32.45 14.03Q32.45 13.54 32.74 13.22L32.74 13.22L32.74 13.22Q33.03 12.91 33.49 12.91L33.49 12.91L33.49 12.91Q33.89 12.91 34.11 13.09L34.11 13.09L34.11 13.09Q34.33 13.27 34.33 13.64L34.33 13.64L34.33 13.64Q34.33 13.71 34.29 13.81L34.29 13.81L34.29 13.81Q34.26 13.92 34.18 14.02L34.18 14.02L34.18 14.02Q34.10 14.13 33.98 14.20L33.98 14.20L33.98 14.20Q33.85 14.27 33.68 14.27L33.68 14.27L33.68 14.27Q33.71 14.41 33.84 14.46L33.84 14.46L33.84 14.46Q33.98 14.50 34.09 14.50L34.09 14.50L34.09 14.50Q34.23 14.50 34.36 14.47L34.36 14.47L34.36 14.47Q34.50 14.43 34.63 14.30L34.63 14.30L34.63 14.30Q34.76 14.17 34.91 13.91L34.91 13.91L34.91 13.91Q35.06 13.65 35.22 13.22L35.22 13.22L35.39 12.70L32.58 6.09L31.74 5.82L31.74 5.04L35.29 5.04L35.41 5.82L34.41 6.09L36.13 10.95L36.19 10.95L37.74 6.09L36.93 5.82L36.93 5.04L40.01 5.04L40.01 5.82L39.16 6.09ZM43.39 11.89L43.39 11.89L43.39 11.89Q43.74 11.89 44.04 11.82L44.04 11.82L44.04 11.82Q44.35 11.75 44.58 11.62L44.58 11.62L44.58 11.62Q44.81 11.49 44.95 11.30L44.95 11.30L44.95 11.30Q45.08 11.12 45.08 10.88L45.08 10.88L45.08 10.88Q45.08 10.60 44.91 10.39L44.91 10.39L44.91 10.39Q44.73 10.18 44.44 10.02L44.44 10.02L44.44 10.02Q44.16 9.87 43.80 9.75L43.80 9.75L43.80 9.75Q43.44 9.63 43.09 9.52L43.09 9.52L43.09 9.52Q42.66 9.39 42.25 9.21L42.25 9.21L42.25 9.21Q41.83 9.02 41.50 8.73L41.50 8.73L41.50 8.73Q41.17 8.44 40.98 8.05L40.98 8.05L40.98 8.05Q40.78 7.66 40.78 7.13L40.78 7.13L40.78 7.13Q40.78 6.12 41.51 5.51L41.51 5.51L41.51 5.51Q42.24 4.90 43.60 4.90L43.60 4.90L43.60 4.90Q44.24 4.90 44.76 5.04L44.76 5.04L44.76 5.04Q45.28 5.18 45.64 5.44L45.64 5.44L45.64 5.44Q46.00 5.70 46.21 6.05L46.21 6.05L46.21 6.05Q46.41 6.41 46.41 6.83L46.41 6.83L46.41 6.83Q46.41 7.32 46.15 7.57L46.15 7.57L46.15 7.57Q45.89 7.83 45.44 7.83L45.44 7.83L45.44 7.83Q45.00 7.83 44.74 7.61L44.74 7.61L44.74 7.61Q44.49 7.39 44.49 7.10L44.49 7.10L44.49 7.10Q44.49 6.86 44.63 6.64L44.63 6.64L44.63 6.64Q44.77 6.43 45.00 6.31L45.00 6.31L45.00 6.31Q44.80 6.05 44.47 5.90L44.47 5.90L44.47 5.90Q44.14 5.75 43.65 5.75L43.65 5.75L43.65 5.75Q42.99 5.75 42.67 6.03L42.67 6.03L42.67 6.03Q42.35 6.30 42.35 6.79L42.35 6.79L42.35 6.79Q42.35 7.35 42.71 7.62L42.71 7.62L42.71 7.62Q43.08 7.90 43.69 8.08L43.69 8.08L43.69 8.08Q44.25 8.25 44.80 8.43L44.80 8.43L44.80 8.43Q45.35 8.61 45.77 8.88L45.77 8.88L45.77 8.88Q46.20 9.14 46.46 9.53L46.46 9.53L46.46 9.53Q46.72 9.91 46.72 10.46L46.72 10.46L46.72 10.46Q46.72 11.00 46.46 11.43L46.46 11.43L46.46 11.43Q46.20 11.86 45.75 12.14L45.75 12.14L45.75 12.14Q45.29 12.43 44.67 12.59L44.67 12.59L44.67 12.59Q44.06 12.74 43.34 12.74L43.34 12.74L43.34 12.74Q42 12.74 41.25 12.25L41.25 12.25L41.25 12.25Q40.50 11.76 40.50 10.92L40.50 10.92L40.50 10.92Q40.50 10.35 40.82 10.02L40.82 10.02L40.82 10.02Q41.15 9.70 41.59 9.70L41.59 9.70L41.59 9.70Q41.93 9.70 42.22 9.89L42.22 9.89L42.22 9.89Q42.50 10.08 42.50 10.43L42.50 10.43L42.50 10.43Q42.50 10.68 42.35 10.92L42.35 10.92L42.35 10.92Q42.20 11.16 42 11.27L42 11.27L42 11.27Q42.14 11.49 42.46 11.69L42.46 11.69L42.46 11.69Q42.78 11.89 43.39 11.89ZM47.28 5.95L47.28 5.24L48.65 5.04L48.82 3.30L50.41 3.08L50.41 5.04L52.21 5.04L52.21 5.95L50.41 5.95L50.41 10.53L50.41 10.53Q50.41 11.00 50.43 11.18L50.43 11.18L50.43 11.18Q50.44 11.35 50.48 11.47L50.48 11.47L50.48 11.47Q50.53 11.55 50.64 11.59L50.64 11.59L50.64 11.59Q50.75 11.63 51.00 11.63L51.00 11.63L51.98 11.63L51.98 12.25L51.98 12.25Q51.17 12.50 50.55 12.62L50.55 12.62L50.55 12.62Q49.92 12.74 49.56 12.74L49.56 12.74L49.56 12.74Q48.93 12.74 48.75 12.22L48.75 12.22L48.75 12.22Q48.68 12.05 48.66 11.79L48.66 11.79L48.66 11.79Q48.64 11.54 48.64 11.00L48.64 11.00L48.64 5.95L47.28 5.95ZM60.13 12.75L60.13 12.75L60.13 12.75Q59.33 12.75 58.78 12.52L58.78 12.52L58.78 12.52Q58.23 12.29 57.79 11.79L57.79 11.79L57.64 12.60L56.43 12.60L56.43 9.21L57.71 9.21L57.71 9.21Q57.75 9.91 57.92 10.40L57.92 10.40L57.92 10.40Q58.10 10.89 58.39 11.20L58.39 11.20L58.39 11.20Q58.69 11.51 59.09 11.64L59.09 11.64L59.09 11.64Q59.49 11.77 59.99 11.77L59.99 11.77L59.99 11.77Q60.79 11.77 61.26 11.45L61.26 11.45L61.26 11.45Q61.74 11.12 61.74 10.40L61.74 10.40L61.74 10.40Q61.74 9.97 61.56 9.66L61.56 9.66L61.56 9.66Q61.38 9.35 61.04 9.11L61.04 9.11L61.04 9.11Q60.70 8.86 60.24 8.65L60.24 8.65L60.24 8.65Q59.78 8.44 59.22 8.20L59.22 8.20L59.22 8.20Q58.56 7.94 58.05 7.66L58.05 7.66L58.05 7.66Q57.54 7.39 57.19 7.05L57.19 7.05L57.19 7.05Q56.84 6.71 56.66 6.26L56.66 6.26L56.66 6.26Q56.48 5.82 56.48 5.21L56.48 5.21L56.48 5.21Q56.48 3.85 57.31 3.11L57.31 3.11L57.31 3.11Q58.14 2.37 59.54 2.37L59.54 2.37L59.54 2.37Q60.93 2.37 61.80 3.15L61.80 3.15L61.91 2.52L63.11 2.52L63.11 5.91L61.89 5.91L61.89 5.91Q61.89 4.59 61.40 3.96L61.40 3.96L61.40 3.96Q60.91 3.33 59.89 3.33L59.89 3.33L59.89 3.33Q58.31 3.33 58.31 4.83L58.31 4.83L58.31 4.83Q58.31 5.19 58.41 5.45L58.41 5.45L58.41 5.45Q58.52 5.70 58.77 5.90L58.77 5.90L58.77 5.90Q59.01 6.10 59.41 6.30L59.41 6.30L59.41 6.30Q59.81 6.50 60.40 6.76L60.40 6.76L60.40 6.76Q61.28 7.17 61.89 7.52L61.89 7.52L61.89 7.52Q62.50 7.87 62.87 8.23L62.87 8.23L62.87 8.23Q63.24 8.60 63.41 9.00L63.41 9.00L63.41 9.00Q63.57 9.41 63.57 9.93L63.57 9.93L63.57 9.93Q63.57 10.63 63.31 11.16L63.31 11.16L63.31 11.16Q63.04 11.69 62.57 12.05L62.57 12.05L62.57 12.05Q62.10 12.40 61.47 12.58L61.47 12.58L61.47 12.58Q60.84 12.75 60.13 12.75ZM64.27 5.95L64.27 5.24L65.65 5.04L65.81 3.30L67.41 3.08L67.41 5.04L69.20 5.04L69.20 5.95L67.41 5.95L67.41 10.53L67.41 10.53Q67.41 11.00 67.42 11.18L67.42 11.18L67.42 11.18Q67.44 11.35 67.48 11.47L67.48 11.47L67.48 11.47Q67.52 11.55 67.63 11.59L67.63 11.59L67.63 11.59Q67.75 11.63 68.00 11.63L68.00 11.63L68.98 11.63L68.98 12.25L68.98 12.25Q68.17 12.50 67.54 12.62L67.54 12.62L67.54 12.62Q66.92 12.74 66.56 12.74L66.56 12.74L66.56 12.74Q65.93 12.74 65.74 12.22L65.74 12.22L65.74 12.22Q65.67 12.05 65.65 11.79L65.65 11.79L65.65 11.79Q65.63 11.54 65.63 11.00L65.63 11.00L65.63 5.95L64.27 5.95ZM69.73 10.95L69.73 10.95L69.73 10.95Q69.73 10.37 69.99 9.93L69.99 9.93L69.99 9.93Q70.25 9.49 70.79 9.16L70.79 9.16L70.79 9.16Q71.33 8.82 72.16 8.58L72.16 8.58L72.16 8.58Q73.00 8.34 74.14 8.16L74.14 8.16L74.14 8.16Q74.07 7.46 73.98 7.09L73.98 7.09L73.98 7.09Q73.89 6.72 73.74 6.44L73.74 6.44L73.74 6.44Q73.54 6.12 73.28 5.92L73.28 5.92L73.28 5.92Q73.02 5.73 72.62 5.73L72.62 5.73L72.62 5.73Q72.32 5.73 72.08 5.84L72.08 5.84L72.08 5.84Q71.83 5.95 71.75 6.15L71.75 6.15L71.75 6.15Q71.95 6.26 72.02 6.46L72.02 6.46L72.02 6.46Q72.10 6.66 72.10 6.82L72.10 6.82L72.10 6.82Q72.10 7.17 71.79 7.44L71.79 7.44L71.79 7.44Q71.48 7.71 71.05 7.71L71.05 7.71L71.05 7.71Q70.60 7.71 70.36 7.43L70.36 7.43L70.36 7.43Q70.11 7.14 70.11 6.71L70.11 6.71L70.11 6.71Q70.11 6.27 70.35 5.94L70.35 5.94L70.35 5.94Q70.59 5.60 70.98 5.37L70.98 5.37L70.98 5.37Q71.37 5.14 71.86 5.02L71.86 5.02L71.86 5.02Q72.34 4.90 72.83 4.90L72.83 4.90L72.83 4.90Q73.49 4.90 74.01 5.09L74.01 5.09L74.01 5.09Q74.54 5.28 74.86 5.56L74.86 5.56L74.86 5.56Q75.96 6.54 75.96 8.67L75.96 8.67L75.96 10.49L75.96 10.49Q75.96 11.19 76.06 11.45L76.06 11.45L76.06 11.45Q76.15 11.70 76.45 11.70L76.45 11.70L77.08 11.70L77.08 12.33L77.08 12.33Q75.80 12.74 75.14 12.74L75.14 12.74L75.14 12.74Q74.90 12.74 74.75 12.67L74.75 12.67L74.75 12.67Q74.61 12.60 74.52 12.43L74.52 12.43L74.52 12.43Q74.44 12.26 74.40 11.97L74.40 11.97L74.40 11.97Q74.37 11.68 74.37 11.21L74.37 11.21L74.31 11.21L74.31 11.21Q73.88 11.93 73.16 12.33L73.16 12.33L73.16 12.33Q72.45 12.74 71.62 12.74L71.62 12.74L71.62 12.74Q70.74 12.74 70.24 12.26L70.24 12.26L70.24 12.26Q69.73 11.79 69.73 10.95ZM72.48 11.72L72.48 11.72L72.48 11.72Q72.77 11.72 73.13 11.53L73.13 11.53L73.13 11.53Q73.49 11.34 73.75 10.98L73.75 10.98L73.75 10.98Q73.91 10.78 74.05 10.42L74.05 10.42L74.05 10.42Q74.19 10.05 74.19 9.55L74.19 9.55L74.19 9.55Q74.19 9.38 74.17 9.18L74.17 9.18L74.17 9.18Q74.16 8.97 74.13 8.78L74.13 8.78L74.13 8.78Q73.40 8.93 72.92 9.11L72.92 9.11L72.92 9.11Q72.44 9.28 72.14 9.49L72.14 9.49L72.14 9.49Q71.85 9.70 71.72 9.97L71.72 9.97L71.72 9.97Q71.60 10.25 71.60 10.60L71.60 10.60L71.60 10.60Q71.60 11.21 71.88 11.47L71.88 11.47L71.88 11.47Q72.16 11.72 72.48 11.72ZM81.20 4.90L81.20 4.90L81.20 4.90Q81.84 4.90 82.39 5.05L82.39 5.05L82.39 5.05Q82.94 5.21 83.33 5.49L83.33 5.49L83.33 5.49Q83.73 5.78 83.96 6.19L83.96 6.19L83.96 6.19Q84.18 6.59 84.18 7.08L84.18 7.08L84.18 7.08Q84.18 7.71 83.85 8.04L83.85 8.04L83.85 8.04Q83.51 8.37 83.02 8.37L83.02 8.37L83.02 8.37Q82.74 8.37 82.56 8.28L82.56 8.28L82.56 8.28Q82.38 8.19 82.26 8.04L82.26 8.04L82.26 8.04Q82.14 7.90 82.09 7.71L82.09 7.71L82.09 7.71Q82.04 7.53 82.04 7.35L82.04 7.35L82.04 7.35Q82.04 7.00 82.22 6.75L82.22 6.75L82.22 6.75Q82.39 6.50 82.74 6.38L82.74 6.38L82.74 6.38Q82.54 6.13 82.15 5.98L82.15 5.98L82.15 5.98Q81.76 5.82 81.27 5.82L81.27 5.82L81.27 5.82Q80.82 5.82 80.48 5.98L80.48 5.98L80.48 5.98Q80.14 6.13 79.90 6.47L79.90 6.47L79.90 6.47Q79.66 6.82 79.53 7.38L79.53 7.38L79.53 7.38Q79.41 7.95 79.41 8.78L79.41 8.78L79.41 8.78Q79.41 9.53 79.51 9.97L79.51 9.97L79.51 9.97Q79.60 10.40 79.77 10.72L79.77 10.72L79.77 10.72Q80.00 11.13 80.35 11.36L80.35 11.36L80.35 11.36Q80.70 11.59 81.24 11.59L81.24 11.59L81.24 11.59Q81.52 11.59 81.84 11.52L81.84 11.52L81.84 11.52Q82.15 11.45 82.45 11.32L82.45 11.32L82.45 11.32Q82.75 11.19 83.03 10.98L83.03 10.98L83.03 10.98Q83.30 10.77 83.51 10.47L83.51 10.47L84.27 11.06L84.27 11.06Q83.61 11.97 82.75 12.36L82.75 12.36L82.75 12.36Q81.89 12.74 80.91 12.74L80.91 12.74L80.91 12.74Q79.86 12.74 79.14 12.34L79.14 12.34L79.14 12.34Q78.43 11.94 78.02 11.17L78.02 11.17L78.02 11.17Q77.78 10.72 77.65 10.14L77.65 10.14L77.65 10.14Q77.52 9.56 77.52 8.89L77.52 8.89L77.52 8.89Q77.52 7.98 77.77 7.24L77.77 7.24L77.77 7.24Q78.02 6.51 78.49 5.98L78.49 5.98L78.49 5.98Q78.96 5.46 79.65 5.18L79.65 5.18L79.65 5.18Q80.33 4.90 81.20 4.90ZM89.57 11.82L90.40 11.55L88.55 9.09L87.77 9.74L87.77 11.55L88.84 11.82L88.84 12.60L84.91 12.60L84.91 11.82L85.99 11.55L85.99 2.73L84.91 2.46L84.91 1.68L87.77 1.68L87.77 8.65L90.15 6.08L89.42 5.82L89.42 5.04L92.85 5.04L92.85 5.82L91.62 6.09L89.70 8.05L92.32 11.58L93.06 11.82L93.06 12.60L89.57 12.60L89.57 11.82Z"></path></g><defs data-v-423bf9ae=""><linearGradient data-v-423bf9ae="" gradientTransform="rotate(25)" id="2ee57ec9-cefe-487e-b588-703e085b455b" x1="0%" y1="0%" x2="100%" y2="0%"><stop data-v-423bf9ae="" offset="0%" style="stop-color: rgb(145, 60, 0); stop-opacity: 1;"></stop><stop data-v-423bf9ae="" offset="100%" style="stop-color: rgb(217, 173, 118); stop-opacity: 1;"></stop></linearGradient></defs><g data-v-423bf9ae="" id="773b2e81-d4e1-434f-b0c6-35baa764dd32" transform="matrix(1.2829102127721588,0,0,1.2829102127721588,-13.139881122282233,-18.194426605191964)" stroke="none" fill="url(#2ee57ec9-cefe-487e-b588-703e085b455b)"><path d="M49.23 28.852V16.657l.001-.003a.14.14 0 0 1 .006-.041.075.075 0 0 1 .004-.016.168.168 0 0 1 .031-.053l.001-.002.003-.003.001-.001a.197.197 0 0 1 .038-.031l.005-.003a.174.174 0 0 1 .054-.019l9.095-1.657.05-.002.049.013 11.517 4.84.009.005.011.004.02.017.013.009.005.006a.122.122 0 0 1 .038.06l.001.001a.213.213 0 0 1 .01.056v17.205l3.659-.667c.034-.003.034-.003.067.001l.032.01 11.517 4.839.005.003.007.004c.02.011.03.015.049.036l.006.006c.015.019.027.04.034.064l.003.015c.002.01.003.019.003.029l.001.005v39.298l-.001.004-.002.023-.004.022a.177.177 0 0 1-.054.083.167.167 0 0 1-.1.041l-9.382 1.658v-16.2h-.15v16.195a.215.215 0 0 1-.026-.014l-.003-.002-5.661-3.957v4.598l-.001.004a.17.17 0 0 1-.009.054.127.127 0 0 1-.027.051h-.001l-.001.001-.002.003a.125.125 0 0 1-.048.039.19.19 0 0 1-.05.019l-.006.002-9.323 1.646-.15.024c.007 0 .076-40.21.076-40.21l-.15.001s.002 40.2-.029 40.179l-.001-.001-11.165-7.805h-.001a.193.193 0 0 1-.051-.056.154.154 0 0 1-.019-.052.132.132 0 0 1-.004-.034V38.745a1.609 1.609 0 0 1-1.241.788c-.06.005-.12.003-.18.005-.715-.02-1.431-.036-2.147-.052a463.08 463.08 0 0 0-11.305-.098c-2.927.013-5.854.056-8.78.166l-.04.088-.524 1.256-.476 1.246-.431 1.234-.387 1.219-.346 1.201-.306 1.181-.269 1.157-.234 1.131-.201 1.101-.171 1.07-.142 1.033-.116.996-.092.954-.003.037.332.48a293.348 293.348 0 0 0 5.357 7.422c1.118 1.506 2.251 3 3.368 4.506l.303.414c.129.181.266.362.374.558a2.27 2.27 0 0 1 .275 1.031 2.356 2.356 0 0 1-.131.844c-.277.812-.932 1.431-1.605 1.927-.119.087-.239.172-.362.254-.212.142-.428.277-.648.407-.279.166-.562.323-.849.475-.354.188-.713.368-1.074.542-.49.237-.984.463-1.481.684l-.128.057.293.668.285.653.27.622.253.586.233.541.212.494.187.441.124.291.075.175.067.158.059.141.052.123.044.103.036.086.027.064.018.044.01.023.001.003a1.45 1.45 0 0 1-.717 1.87c.111-.002.115-.001.233.001.361.01.72.037 1.077.086.468.064.929.164 1.388.275.473.12.944.248 1.418.366.172.042.344.083.517.12.379.08.763.14 1.147.193.439.059.88.106 1.323.138.343.024.688.04 1.033.034.228-.003.46-.012.684-.06l.029-.007.02-.005.035-.031c.06-.042.074-.055.141-.086a.717.717 0 0 1 .564-.012.72.72 0 0 1 .376.966c-.155.326-.515.489-.848.565a4.504 4.504 0 0 1-.89.093c-.415.011-.831-.007-1.245-.036a22.35 22.35 0 0 1-1.414-.147 17.564 17.564 0 0 1-1.248-.211c-.667-.14-1.324-.33-1.985-.496-.164-.04-.328-.079-.493-.115a9.794 9.794 0 0 0-1.128-.176 7.48 7.48 0 0 0-.395-.026c-.094-.003-.192-.009-.286-.005-.12.006-.24.032-.357.055-.256.053-.511.112-.766.17-.25.057-.499.114-.749.169-.238.051-.476.101-.715.148-1.611.308-3.261.482-4.898.295a10.562 10.562 0 0 1-.398-.053 1.598 1.598 0 0 1-.976.038 1.599 1.599 0 0 1-.699-.41 7.582 7.582 0 0 0-.977-.025c-.502.011-1.003.042-1.504.079-1.286.097-2.569.24-3.849.404l-.082.006c-.074-.003-.093-.001-.165-.017a.724.724 0 0 1-.356-.2.719.719 0 0 1 .34-1.187c.027-.006.054-.01.082-.015a70.571 70.571 0 0 1 4.223-.433c.363-.025.726-.045 1.089-.057-.08-.106-.159-.213-.237-.321a12.856 12.856 0 0 1-1.131-1.83 6.002 6.002 0 0 1-.514-1.422 3.523 3.523 0 0 1-.072-.966c.019-.263.069-.525.173-.768.215-.506.63-.888 1.075-1.195.27-.187.555-.351.844-.507.369-.198.746-.381 1.126-.557.283-.131.567-.258.851-.383.41-.18.823-.355 1.235-.53l1.862-.776-.031-.072-.403-.991-.361-.976-.321-.955-.284-.926-.249-.891-.216-.847-.185-.793-.119-.557-.071-.355-.065-.337-.059-.32-.053-.301-.047-.282-.042-.262-.036-.24-.031-.218-.027-.195-.022-.171-.018-.146-.015-.121-.009-.093-.007-.065-.001-.003-.001-.007-.002-.029-.006-.051-.008-.074-.015-.15-.024-.267-.026-.344-.026-.421-.025-.492-.02-.561-.014-.627-.005-.692.007-.751.021-.81.036-.864.018-.293c-.556-.81-1.105-1.624-1.646-2.444-1.182-1.789-2.329-3.603-3.383-5.47a47.992 47.992 0 0 1-.903-1.671 32.963 32.963 0 0 1-.637-1.31c-.254-.555-.49-1.12-.689-1.697a9.465 9.465 0 0 1-.412-1.563c-.109-.671-.115-1.378.123-2.024.076-.206.175-.402.298-.583.074-.109.157-.212.247-.308.458-.484 1.089-.766 1.712-.973a11.056 11.056 0 0 1 .937-.262c.23-.055.462-.104.694-.15.338-.066.676-.124 1.016-.176a44.946 44.946 0 0 1 2.64-.321 90.763 90.763 0 0 1 3.416-.258c.528-.031 1.056-.059 1.584-.084l.346-.697.73-1.354.121-.207a9.684 9.684 0 0 1-3.729-2.423 9.75 9.75 0 0 1-1.959-3.008 9.68 9.68 0 0 1-.478-5.902 9.7 9.7 0 0 1 5.971-6.862 9.674 9.674 0 0 1 3.362-.649h.243a9.755 9.755 0 0 1 4.037.931 9.688 9.688 0 0 1 4.902 5.287 9.666 9.666 0 0 1 .643 3.241 9.786 9.786 0 0 1-.484 3.275 9.686 9.686 0 0 1-3.495 4.805 9.683 9.683 0 0 1-5.988 1.872l-.644 1.102-.249.464c1.072-.031 2.144-.054 3.216-.071 5.114-.084 10.229-.043 15.342.058l.281.007a24.152 24.152 0 0 1-.088-1.296c-.053-1.465.022-2.938.311-4.378.084-.418.187-.831.308-1.24l.031-.104c.046-.147.097-.289.175-.423a1.599 1.599 0 0 1 1.146-.774c.059-.009.119-.011.178-.016l.179.004c.059.008.118.013.177.024.117.023.231.059.341.107.238.105.385.419.462.642zm26.802 53.664h-.001v-.001l.001.001zm-40.122-.173l-.02.022-.005.006.025-.028zm-13.006-7.149c-.745.31-1.489.618-2.232.932-.294.125-.587.252-.88.379-.699.309-1.404.619-2.064 1.007l-.032.019c.061.18.143.354.23.523.136.266.292.523.456.774.445.679.953 1.319 1.492 1.926l.029.031c.1.124.131.151.209.29a1.608 1.608 0 0 1 .195.956c.248.017.497.026.746.026a1.449 1.449 0 0 1-.098-2.306l.219-.154.217-.11.219-.085.276-.087.315-.085.355-.087.39-.089.624-.134.846-.171.027-.005-.201-.469-.231-.538-.25-.58-.268-.618-.284-.648-.295-.674-.01-.023zm-1.223-15.43l.017.461.023.452.024.381.024.308.02.231.013.119.005.053.004.035.002.014-.001-.003.005.038v.004l.002.023.005.05.009.076.012.103.016.128.019.152.025.176.028.197.034.22.038.24.043.26.049.278.055.297.06.312.067.329.112.524.173.744.202.787.231.826.264.857.297.88.332.896.37.904.013.031a43.645 43.645 0 0 0 1.949-.91c.386-.194.769-.395 1.143-.612a8.462 8.462 0 0 0 1.059-.709l.014-.012c-.489-.664-.986-1.323-1.482-1.983-.541-.723-1.083-1.446-1.622-2.17a358.386 358.386 0 0 1-3.653-4.987zm63.544 4.635v-.404l-9.097 1.622v.407l9.097-1.625zm-15.033-1.322v.475l5.586 2.427v-.401l-5.586-2.501zm5.936 1.54v.797l9.097-1.622v-.797l-9.097 1.622zm-5.936-2.54v.781l5.586 2.501v-.781l-5.586-2.501zm5.936 1.54v.797l9.097-1.622v-.797l-9.097 1.622zm-5.936-2.54v.781l5.586 2.501v-.781l-5.586-2.501zm5.936 1.54v.797l9.097-1.622v-.797l-9.097 1.622zm-5.936-2.54v.781l5.586 2.501v-.781l-5.586-2.501zm5.936 1.54v.797l9.097-1.622v-.797l-9.097 1.622zm-5.936-2.54v.781l5.586 2.501v-.781l-5.586-2.501zm-51.257 3.082l-.003-.028v-.003l.003.031zm57.193-1.542v.797l9.097-1.622v-.797l-9.097 1.622zm-5.936-2.54v.781l5.586 2.501v-.781l-5.586-2.501zm5.936 1.54v.797l9.097-1.622v-.797l-9.097 1.622zm-5.936-2.54v.781l5.586 2.501v-.781l-5.586-2.501zm5.936 1.54v.797l9.097-1.622v-.797l-9.097 1.622zm-5.936-2.54v.781l5.586 2.501v-.781l-5.586-2.501zm5.936 1.54v.797l9.097-1.622v-.797l-9.097 1.622zm-5.936-2.54v.781l5.586 2.501v-.781l-5.586-2.501zm5.936 1.54v.797l9.097-1.622v-.797l-9.097 1.622zm-5.936-2.54v.781l5.586 2.501v-.781l-5.586-2.501zm5.936 1.54v.797l9.097-1.622v-.797l-9.097 1.622zm-5.936-2.54v.781l5.586 2.501v-.781l-5.586-2.501zm5.936 1.54v.797l9.097-1.622v-.797l-9.097 1.622zm-5.936-2.54v.781l5.586 2.501v-.781l-5.586-2.501zm5.936 1.54v.797l9.097-1.622v-.797l-9.097 1.622zm-5.936-2.54v.781l5.586 2.501v-.781l-5.586-2.501zm5.936 1.54v.797l9.097-1.622v-.797l-9.097 1.622zm-5.936-2.54v.781l5.586 2.501v-.781l-5.586-2.501zm5.936 1.54v.797l9.097-1.622v-.797l-9.097 1.622zm-5.936-2.54v.781l5.586 2.501v-.781l-5.586-2.501zm5.936 1.54v.797l9.097-1.622v-.797l-9.097 1.622zm-5.936-2.54v.781l5.586 2.501v-.781l-5.586-2.501zm-47.823-8.37c-.321.019-.643.04-.964.062a71.548 71.548 0 0 0-3.139.274c-.756.085-1.51.184-2.258.322-.318.058-.635.124-.948.204a5.9 5.9 0 0 0-.758.239l-.009.004c.009.169.04.336.077.501.047.206.106.41.171.611.202.621.462 1.223.739 1.814.402.855.848 1.69 1.312 2.512a72.586 72.586 0 0 0 1.705 2.854c.35.56.706 1.118 1.066 1.672l.15-.93.214-1.168.249-1.199.287-1.229.326-1.254.368-1.277.413-1.297.46-1.315.509-1.328.03-.072zm53.759 9.91v.797l9.097-1.622v-.797l-9.097 1.622zm-5.936-2.54v.781l5.586 2.501v-.781l-5.586-2.501zm5.936 1.54v.797l9.097-1.622v-.797l-9.097 1.622zm-5.936-2.541v.781l5.586 2.502v-.781l-5.586-2.502zm5.936 1.541v.797l9.097-1.622v-.797l-9.097 1.622zm-5.936-2.541v.781l5.586 2.502v-.781l-5.586-2.502zm5.936 1.541v.797l9.097-1.622v-.797l-9.097 1.622zm-5.936-2.541v.781l5.586 2.502v-.781l-5.586-2.502zm5.936 1.541v.797l9.097-1.622v-.797l-9.097 1.622zm-5.936-2.541v.781l5.586 2.502v-.781l-5.586-2.502zm5.936 1.541v.797l9.097-1.622v-.797l-9.097 1.622zm-5.936-2.541v.781l5.586 2.502v-.781l-5.586-2.502zm-.35.372l-9.097 1.622v.407l9.097-1.625v-.404zm-20.262-3.26v.545l10.815 4.699v-.401L49.58 39.188zm35.645 3.604v-1.197l-9.097 1.607v1.212l9.097-1.622zm-15.033-2.049v1.114l5.586 2.502V43.17l-5.586-2.427zm-9.447 2.327v.797l9.097-1.622v-.797l-9.097 1.622zM49.58 38.969l10.815 4.843v-.781L49.58 38.188v.781zm20.612-1.572v2.964l5.782 2.513 8.81-1.556-10.921-4.59-3.671.669zm-9.447 4.673v.797l9.097-1.622v-.797l-9.097 1.622zM49.58 37.969l10.815 4.843v-.781L49.58 37.188v.781zm11.165 3.101v.797l9.097-1.622v-.797l-9.097 1.622zM49.58 36.969l10.815 4.843v-.781L49.58 36.188v.781zm11.165 3.101v.797l9.097-1.622v-.797l-9.097 1.622zM49.58 35.969l10.815 4.843v-.781L49.58 35.188v.781zm11.165 3.101v.797l9.097-1.622v-.797l-9.097 1.622zM49.58 34.969l10.815 4.843v-.781L49.58 34.188v.781zm11.165 3.101v.797l9.097-1.622v-.797l-9.097 1.622zM49.58 33.969l10.815 4.843v-.781L49.58 33.188v.781zm11.165 3.101v.797l9.097-1.622v-.797l-9.097 1.622zM49.58 32.969l10.815 4.843v-.781L49.58 32.188v.781zm11.165 3.101v.797l9.097-1.622v-.797l-9.097 1.622zM49.58 31.969l10.815 4.843v-.781L49.58 31.188v.781zm-.35.052a16.498 16.498 0 0 0-.102 3.28c.023.38.057.759.102 1.136v-4.416zm11.515 3.049v.797l9.097-1.622v-.797l-9.097 1.622zM49.58 30.969l10.815 4.843v-.781L49.58 30.188v.781zm11.165 3.101v.797l9.097-1.622v-.797l-9.097 1.622zM49.58 29.969l10.815 4.843v-.781L49.58 29.188v.781zm11.165 3.101v.797l9.097-1.622v-.797l-9.097 1.622zM49.58 28.969l10.815 4.843v-.781L49.58 28.188v.781zm11.165 3.101v.797l9.097-1.622v-.797l-9.097 1.622zM49.58 27.969l10.815 4.843v-.781L49.58 27.188v.781zm11.165 3.101v.797l9.097-1.622v-.797l-9.097 1.622zM49.58 26.969l10.815 4.843v-.781L49.58 26.188v.781zm-21.334-8.446a6.567 6.567 0 0 0-2.18.407 6.583 6.583 0 0 0-3.328 2.758 6.6 6.6 0 0 0-.928 3.607c.027.74.183 1.475.458 2.163.3.752.741 1.447 1.293 2.039a6.488 6.488 0 0 0 4.683 2.065 6.483 6.483 0 0 0 2.343-.408 6.585 6.585 0 0 0 3.408-2.896 6.538 6.538 0 0 0 .839-3.63 6.458 6.458 0 0 0-.421-1.93 6.566 6.566 0 0 0-1.164-1.936 6.496 6.496 0 0 0-1.98-1.543 6.647 6.647 0 0 0-3.023-.696zM60.745 30.07v.797l9.097-1.622v-.797l-9.097 1.622zM49.58 25.969l10.815 4.843v-.781L49.58 25.188v.781zm11.165 3.101v.797l9.097-1.622v-.797l-9.097 1.622zM49.58 24.969l10.815 4.843v-.781L49.58 24.188v.781zm11.165 3.101v.797l9.097-1.622v-.797l-9.097 1.622zM49.58 23.969l10.815 4.843v-.781L49.58 23.188v.781zm11.165 3.101v.797l9.097-1.622v-.797l-9.097 1.622zM49.58 22.969l10.815 4.843v-.781L49.58 22.188v.781zm11.165 3.101v.797l9.097-1.622v-.797l-9.097 1.622zM49.58 21.969l10.815 4.843v-.781L49.58 21.188v.781zm11.165 3.101v.797l9.097-1.622v-.797l-9.097 1.622zM49.58 20.969l10.815 4.843v-.781L49.58 20.188v.781zm11.165 3.101v.797l9.097-1.622v-.797l-9.097 1.622zM49.58 19.969l10.815 4.843v-.781L49.58 19.188v.781zm11.165 3.101v.797l9.097-1.622v-.797l-9.097 1.622zM49.58 18.969l10.815 4.843v-.781L49.58 18.188v.781zm20.262 2.276v-1.197l-9.097 1.607v1.212l9.097-1.622zM49.58 17.969l10.815 4.843v-1.189L49.58 16.924v1.045zm.423-1.243l10.589 4.601 8.809-1.556-10.921-4.59-8.477 1.545z"></path></g><!----></svg>